Coordinates
version=1
nRows=16
nColumns=22
inDegrees=yes

Units are S.I. units (second, meters, Newtons, ...)
If the header above contains a line with 'inDegrees', this indicates whether rotational values are in degrees (yes) or radians (no).

endheader
time	pelvis_tilt	pelvis_list	pelvis_rotation	pelvis_tx	pelvis_ty	pelvis_tz	hip_flexion_r	hip_adduction_r	hip_rotation_r	knee_angle_r	ankle_angle_r	subtalar_angle_r	hip_flexion_l	hip_adduction_l	hip_rotation_l	knee_angle_l	ankle_angle_l	subtalar_angle_l	lumbar_extension	lumbar_bending	lumbar_rotation
      0.01000000	     -1.29583994	      0.19590023	    178.74284302	      0.14386339	      1.08693124	      1.17643985	     -4.02380276	      1.54775837	     -1.88982993	     -8.42506251	     11.63109540	     -2.56951345	     -2.89439935	      0.75739618	      2.56758172	    -10.02830649	     12.06547470	     -4.19481598	     -2.10994923	     -1.79314533	     -5.20466815
      0.02000000	     -1.28890863	      0.19688702	    178.74460464	      0.14380375	      1.08691541	      1.17652510	     -4.02115627	      1.54428642	     -1.89047636	     -8.42214574	     11.63152808	     -2.56895937	     -2.89299905	      0.76061761	      2.56600873	    -10.02391154	     12.06602764	     -4.19606449	     -2.11822042	     -1.78822905	     -5.20448929
      0.03000000	     -1.28053153	      0.19777330	    178.74392695	      0.14372232	      1.08689726	      1.17661460	     -4.01896685	      1.54010605	     -1.89203276	     -8.41791692	     11.63219780	     -2.56806500	     -2.89235415	      0.76462562	      2.56375979	    -10.01779845	     12.06721286	     -4.19789174	     -2.12577249	     -1.78325618	     -5.20480898
      0.04000000	     -1.26843221	      0.19458382	    178.73393547	      0.14357590	      1.08687347	      1.17669418	     -4.02090530	      1.53034438	     -1.89713927	     -8.40321314	     11.63511839	     -2.56215040	     -2.90102385	      0.77347597	      2.55144847	     -9.99415439	     12.07363000	     -4.20930162	     -2.11888505	     -1.78295877	     -5.20113258
      0.05000000	     -1.25906504	      0.19571124	    178.73095611	      0.14347991	      1.08685471	      1.17677701	     -4.01966966	      1.52665929	     -1.89736645	     -8.39714051	     11.63583324	     -2.56114631	     -2.89997167	      0.77715591	      2.54925622	     -9.98874405	     12.07425802	     -4.21120066	     -2.12844240	     -1.78174155	     -5.19756853
      0.06000000	     -1.26443441	      0.18133765	    178.68247803	      0.14331129	      1.08685620	      1.17679740	     -4.04602611	      1.50307453	     -1.84209027	     -8.37159793	     11.64487935	     -2.53717514	     -2.93744702	      0.79978887	      2.49623048	     -9.95222893	     12.05586156	     -4.26398405	     -2.13942840	     -1.80098204	     -5.12784149
      0.07000000	     -1.25413174	      0.18120671	    178.67463392	      0.14317202	      1.08683268	      1.17688727	     -4.05368792	      1.49658462	     -1.84812077	     -8.35005457	     11.64466690	     -2.53631733	     -2.94071703	      0.80606983	      2.49135765	     -9.94241665	     12.06186618	     -4.26798085	     -2.13735506	     -1.79941386	     -5.11405357
      0.08000000	     -1.24374457	      0.18016480	    178.66786125	      0.14303899	      1.08680918	      1.17697255	     -4.06455128	      1.49030486	     -1.84785945	     -8.32253605	     11.64447273	     -2.53552870	     -2.94351460	      0.81270776	      2.48388871	     -9.93101653	     12.06657064	     -4.27270823	     -2.13542422	     -1.80157690	     -5.09041651
      0.09000000	     -1.23452723	      0.17976632	    178.66029959	      0.14291305	      1.08678689	      1.17706388	     -4.07541866	      1.48440195	     -1.84324030	     -8.29615857	     11.64361451	     -2.53513991	     -2.94674254	      0.81951735	      2.47667859	     -9.92092365	     12.06910047	     -4.27738274	     -2.13401174	     -1.80108227	     -5.06717973
      0.10000000	     -1.22509607	      0.18038548	    178.65538691	      0.14278887	      1.08676416	      1.17716099	     -4.08638752	      1.47977105	     -1.83922481	     -8.26972478	     11.64270175	     -2.53505149	     -2.94976914	      0.82486826	      2.47021007	     -9.91026488	     12.07077047	     -4.28185363	     -2.13106436	     -1.79876546	     -5.04425529
      0.11000000	     -1.21518966	      0.18160727	    178.65172020	      0.14266071	      1.08674084	      1.17726237	     -4.09709214	      1.47575509	     -1.83648208	     -8.24336853	     11.64125367	     -2.53508814	     -2.95326522	      0.82959218	      2.46503718	     -9.89818937	     12.07216668	     -4.28624139	     -2.12569578	     -1.79436110	     -5.02222896
      0.12000000	     -1.20449142	      0.18310698	    178.64945452	      0.14252454	      1.08671692	      1.17736682	     -4.10750709	      1.47213488	     -1.83471674	     -8.21695551	     11.63935478	     -2.53511920	     -2.95777037	      0.83387811	      2.46078492	     -9.88336062	     12.07330569	     -4.29068478	     -2.11747786	     -1.78877267	     -5.00045509
      0.13000000	     -1.19306190	      0.18464787	    178.64810919	      0.14237759	      1.08669249	      1.17747401	     -4.11745347	      1.46856004	     -1.83343803	     -8.19123858	     11.63719883	     -2.53505048	     -2.96380588	      0.83808217	      2.45749759	     -9.86530988	     12.07398669	     -4.29522730	     -2.10654643	     -1.78232672	     -4.97935444
      0.14000000	     -1.18109853	      0.18610643	    178.64816272	      0.14221911	      1.08666738	      1.17758463	     -4.12681524	      1.46487001	     -1.83246205	     -8.16710795	     11.63523838	     -2.53478437	     -2.97149004	      0.84232293	      2.45542088	     -9.84418640	     12.07413121	     -4.29991666	     -2.09354781	     -1.77556909	     -4.95948827
      0.15000000	     -1.16900525	      0.18748000	    178.65019868	      0.14205096	      1.08664120	      1.17770023	     -4.13534377	      1.46095009	     -1.83202232	     -8.14580175	     11.63414071	     -2.53422027	     -2.98048140	      0.84667298	      2.45522860	     -9.82119014	     12.07392253	     -4.30482039	     -2.07972390	     -1.76872155	     -4.94201457
      0.16000000	     -1.15714373	      0.18893788	    178.65528066	      0.14187603	      1.08661292	      1.17782266	     -4.14273699	      1.45691616	     -1.83255547	     -8.12818379	     11.63487147	     -2.53317738	     -2.99017282	      0.85109064	      2.45791119	     -9.79760552	     12.07385186	     -4.31024306	     -2.06636248	     -1.76177878	     -4.92793222
